# xmcd
#
# Track frame offsets:
#	150
#	12634
#	24211
#	36446
#	50434
#	61873
#	74545
#	87115
#	99440
#	111331
#	123172
#	135346
#	147969
#	159005
#	172506
#	183615
#	195626
#	207752
#	220621
#	232000
#
# Disc length: 3268 seconds
# Revision: 0
# Processed by: cddbd v1.5.2PL0 Copyright (c) Steve Scherf et al.
# Submitted via: dBpowerAMP V12.0
#
DISCID=090cc214
DTITLE=Wynonie ''Mr. Blues" Harris -  King Masters Good Rocking Tonight
DYEAR=1990
DGENRE=Blues
TTITLE0=Good Rocking Tonight
TTITLE1=She Just Won't Sell No More
TTITLE2=Blow Your Brains Out
TTITLE3=I Want My Fanny Brown
TTITLE4=All She Wants To Do Is Rock
TTITLE5=Lollipop Mama
TTITLE6=Baby, Shame On You
TTITLE7=I Won't Like My Baby's Pudding
TTITLE8=Wynonie's Boogie
TTITLE9=Sittin' On It All The Time
TTITLE10=Good Morning Judge
TTITLE11=I Feel That Old Age Coming On
TTITLE12=Lovin' Machine
TTITLE13=Mr. Blues Is Coming To Town
TTITLE14=Quiet Whiskey
TTITLE15=Rock Mr. Blues
TTITLE16=Bloodshot Eyes
TTITLE17=Luscious Woman
TTITLE18=Down Boy Down
TTITLE19=Keep On Churnin' (Til The Butter Come)
EXTD=
EXTT0=
EXTT1=
EXTT2=
EXTT3=
EXTT4=
EXTT5=
EXTT6=
EXTT7=
EXTT8=
EXTT9=
EXTT10=
EXTT11=
EXTT12=
EXTT13=
EXTT14=
EXTT15=
EXTT16=
EXTT17=
EXTT18=
EXTT19=
PLAYORDER=
